<svg width="1000" height="500" viewBox="0 0 1000 500" fill="none" xmlns="http://www.w3.org/2000/svg">
<g clip-path="url(#clip0_2_3)">
<g filter="url(#filter0_dd_2_3)">
<path d="M888.677 415.806C890.344 415.767 891.494 415.074 892.13 413.725C892.766 412.377 892.235 411.056 890.538 409.761L850.214 374.686C849.532 374.035 848.691 373.721 847.692 373.744L756.216 375.864C755.217 375.888 754.391 376.24 753.74 376.922L721.583 413.677C720.614 415.033 720.479 416.37 721.176 417.687C721.54 419.013 722.555 419.656 724.221 419.617L888.677 415.806ZM710.435 407.434C710.807 409.092 711.667 410.239 713.016 410.875C714.357 411.177 715.678 410.646 716.98 409.282L749.137 372.528C749.788 371.846 750.102 371.005 750.079 370.005L739.973 279.215C739.949 278.215 739.597 277.39 738.915 276.739L708.286 249.941C706.255 248.654 704.756 248.689 703.787 250.045L694.986 258.752C694.661 259.093 694.514 259.93 694.544 261.263L710.435 407.434ZM703.183 245.558C704.888 247.186 706.387 247.151 707.682 245.454L732.038 217.382C732.689 216.7 733.003 215.859 732.98 214.86L721.654 114.595C721.63 113.595 721.278 112.77 720.596 112.119L679.772 77.0553C678.409 75.7532 677.068 75.4509 675.75 76.1483C674.433 76.8457 673.96 78.0236 674.332 79.6821L691.408 233.828C691.431 234.828 691.784 235.653 692.466 236.304L703.183 245.558ZM867.139 241.758C868.844 243.386 870.51 243.347 872.138 241.643L879.915 231.96C880.566 231.278 880.88 230.437 880.857 229.437L863.781 75.2914C863.409 73.633 862.716 72.4821 861.7 71.8387C860.352 71.2031 859.027 71.5673 857.725 72.9311L825.068 109.698C824.417 110.38 824.103 111.22 824.126 112.22L835.452 212.485C835.475 213.484 835.828 214.31 836.51 214.961L867.139 241.758ZM852.551 367.63C852.575 368.63 852.927 369.455 853.609 370.106L894.932 405.158C896.296 406.46 897.641 406.929 898.966 406.565C899.95 405.876 900.256 404.701 899.885 403.043L883.994 256.872C883.978 256.205 883.459 255.384 882.436 254.407L872.742 246.13C870.37 244.518 868.704 244.556 867.743 246.246L843.387 274.317C842.736 274.999 842.422 275.84 842.445 276.84L852.551 367.63Z" fill="#34B233"/>
</g>
<g filter="url(#filter1_dd_2_3)">
<path fill-rule="evenodd" clip-rule="evenodd" d="M496.851 376.204L532.843 375.37C534.603 375.329 535.949 373.79 535.756 372.041L524.215 267.649C524.136 266.936 523.804 266.275 523.28 265.785L503.335 247.168C502.103 246.018 500.166 246.108 499.046 247.367L482.002 266.531C481.431 267.173 481.162 268.028 481.265 268.881L493.803 373.562C493.986 375.096 495.306 376.24 496.851 376.204ZM457.117 383.127L576.066 380.37C576.823 380.353 577.558 380.622 578.125 381.124L619.322 417.638C619.841 418.098 620.145 418.753 620.161 419.447C620.181 420.323 619.74 421.145 619 421.613L618.432 421.972C617.972 422.263 617.442 422.423 616.898 422.435L427.396 426.827C426.99 426.837 426.586 426.763 426.209 426.612L424.811 426.051C423.84 425.661 423.142 424.793 422.969 423.76L422.895 423.314C422.75 422.44 422.998 421.546 423.573 420.873L454.905 384.178C455.459 383.529 456.264 383.147 457.117 383.127ZM441.646 287.104L451.525 377.015C451.612 377.807 451.381 378.601 450.882 379.222L443.883 387.935L429.258 404.278L418.781 417.016C417.82 418.186 416.137 418.455 414.859 417.645L413.751 416.943C412.979 416.454 412.472 415.64 412.374 414.731L396.738 270.134C396.659 269.402 396.852 268.667 397.28 268.068L404.463 258.013C405.012 257.245 405.89 256.78 406.834 256.758L407.648 256.739C408.41 256.721 409.15 256.994 409.718 257.503L440.664 285.196C441.215 285.689 441.565 286.369 441.646 287.104ZM582.047 377.024L622.618 411.966C622.868 412.181 623.152 412.354 623.458 412.477L625.364 413.242C626.068 413.524 626.873 413.35 627.397 412.801C627.776 412.404 627.96 411.861 627.899 411.316L611.662 264.565C611.587 263.886 611.282 263.254 610.799 262.772L601.19 253.18C600.61 252.602 599.819 252.285 599.001 252.304L597.638 252.336C596.777 252.356 595.966 252.745 595.411 253.404L571.799 281.481C571.272 282.108 571.024 282.922 571.112 283.736L581.022 375.074C581.104 375.83 581.47 376.527 582.047 377.024Z" fill="#34B233"/>
</g>
<g filter="url(#filter2_dd_2_3)">
<path d="M319.117 426.336C320.783 426.297 321.934 425.604 322.569 424.255C323.205 422.907 322.674 421.585 320.977 420.291L280.654 385.216C279.972 384.565 279.131 384.251 278.131 384.274L186.656 386.394C185.656 386.417 184.831 386.77 184.18 387.452L152.022 424.207C151.054 425.563 150.918 426.9 151.615 428.217C151.979 429.542 152.995 430.186 154.661 430.147L319.117 426.336ZM140.875 417.963C141.247 419.622 142.107 420.769 143.455 421.404C144.796 421.707 146.117 421.176 147.419 419.812L179.576 383.057C180.228 382.375 180.541 381.534 180.518 380.535L170.412 289.745C170.389 288.745 170.036 287.919 169.354 287.268L138.725 260.471C136.695 259.184 135.195 259.219 134.226 260.575L125.426 269.281C125.1 269.622 124.953 270.459 124.984 271.792L140.875 417.963ZM133.622 256.088C135.327 257.715 136.827 257.681 138.121 255.984L162.477 227.912C163.128 227.23 163.442 226.389 163.419 225.389L152.093 125.125C152.07 124.125 151.717 123.3 151.035 122.649L110.212 87.5851C108.848 86.283 107.507 85.9806 106.19 86.678C104.872 87.3754 104.399 88.5533 104.771 90.2118L121.847 244.358C121.871 245.357 122.223 246.183 122.905 246.834L133.622 256.088ZM297.578 252.288C299.283 253.916 300.949 253.877 302.577 252.172L310.355 242.489C311.006 241.807 311.32 240.967 311.296 239.967L294.22 85.8212C293.849 84.1627 293.155 83.0118 292.14 82.3685C290.791 81.7329 289.466 82.097 288.164 83.4609L255.507 120.227C254.856 120.909 254.542 121.75 254.565 122.75L265.892 223.014C265.915 224.014 266.267 224.84 266.949 225.491L297.578 252.288ZM282.991 378.16C283.014 379.16 283.366 379.985 284.048 380.636L325.372 415.688C326.736 416.99 328.08 417.459 329.405 417.095C330.39 416.405 330.696 415.231 330.324 413.573L314.433 267.402C314.418 266.735 313.898 265.914 312.875 264.937L303.181 256.659C300.81 255.047 299.144 255.086 298.182 256.775L273.826 284.847C273.175 285.529 272.861 286.37 272.884 287.37L282.991 378.16Z" fill="#34B233"/>
</g>
</g>
<defs>
<filter id="filter0_dd_2_3" x="648.728" y="45.1207" width="276.946" height="400.481" filterUnits="userSpaceOnUse" color-interpolation-filters="sRGB">
<feFlood flood-opacity="0" result="BackgroundImageFix"/>
<feColorMatrix in="SourceAlpha" type="matrix" values="0 0 0 0 0 0 0 0 0 0 0 0 0 0 0 0 0 0 127 0" result="hardAlpha"/>
<feOffset/>
<feGaussianBlur stdDeviation="12.5"/>
<feComposite in2="hardAlpha" operator="out"/>
<feColorMatrix type="matrix" values="0 0 0 0 0.203922 0 0 0 0 0.698039 0 0 0 0 0.2 0 0 0 1 0"/>
<feBlend mode="normal" in2="BackgroundImageFix" result="effect1_dropShadow_2_3"/>
<feColorMatrix in="SourceAlpha" type="matrix" values="0 0 0 0 0 0 0 0 0 0 0 0 0 0 0 0 0 0 127 0" result="hardAlpha"/>
<feOffset dy="6.01168"/>
<feGaussianBlur stdDeviation="7.5"/>
<feComposite in2="hardAlpha" operator="out"/>
<feColorMatrix type="matrix" values="0 0 0 0 0.2 0 0 0 0 0.698039 0 0 0 0 0.399216 0 0 0 0.25 0"/>
<feBlend mode="normal" in2="effect1_dropShadow_2_3" result="effect2_dropShadow_2_3"/>
<feBlend mode="normal" in="SourceGraphic" in2="effect2_dropShadow_2_3" result="shape"/>
</filter>
<filter id="filter1_dd_2_3" x="371.721" y="221.361" width="281.19" height="230.467" filterUnits="userSpaceOnUse" color-interpolation-filters="sRGB">
<feFlood flood-opacity="0" result="BackgroundImageFix"/>
<feColorMatrix in="SourceAlpha" type="matrix" values="0 0 0 0 0 0 0 0 0 0 0 0 0 0 0 0 0 0 127 0" result="hardAlpha"/>
<feOffset/>
<feGaussianBlur stdDeviation="12.5"/>
<feComposite in2="hardAlpha" operator="out"/>
<feColorMatrix type="matrix" values="0 0 0 0 0.203922 0 0 0 0 0.698039 0 0 0 0 0.2 0 0 0 1 0"/>
<feBlend mode="normal" in2="BackgroundImageFix" result="effect1_dropShadow_2_3"/>
<feColorMatrix in="SourceAlpha" type="matrix" values="0 0 0 0 0 0 0 0 0 0 0 0 0 0 0 0 0 0 127 0" result="hardAlpha"/>
<feOffset/>
<feGaussianBlur stdDeviation="7.5"/>
<feComposite in2="hardAlpha" operator="out"/>
<feColorMatrix type="matrix" values="0 0 0 0 0.2 0 0 0 0 0.698039 0 0 0 0 0.4 0 0 0 0.25 0"/>
<feBlend mode="normal" in2="effect1_dropShadow_2_3" result="effect2_dropShadow_2_3"/>
<feBlend mode="normal" in="SourceGraphic" in2="effect2_dropShadow_2_3" result="shape"/>
</filter>
<filter id="filter2_dd_2_3" x="79.1671" y="55.6505" width="276.946" height="400.481" filterUnits="userSpaceOnUse" color-interpolation-filters="sRGB">
<feFlood flood-opacity="0" result="BackgroundImageFix"/>
<feColorMatrix in="SourceAlpha" type="matrix" values="0 0 0 0 0 0 0 0 0 0 0 0 0 0 0 0 0 0 127 0" result="hardAlpha"/>
<feOffset/>
<feGaussianBlur stdDeviation="12.5"/>
<feComposite in2="hardAlpha" operator="out"/>
<feColorMatrix type="matrix" values="0 0 0 0 0.203922 0 0 0 0 0.698039 0 0 0 0 0.2 0 0 0 1 0"/>
<feBlend mode="normal" in2="BackgroundImageFix" result="effect1_dropShadow_2_3"/>
<feColorMatrix in="SourceAlpha" type="matrix" values="0 0 0 0 0 0 0 0 0 0 0 0 0 0 0 0 0 0 127 0" result="hardAlpha"/>
<feOffset dy="6.01168"/>
<feGaussianBlur stdDeviation="7.5"/>
<feComposite in2="hardAlpha" operator="out"/>
<feColorMatrix type="matrix" values="0 0 0 0 0.2 0 0 0 0 0.698039 0 0 0 0 0.399216 0 0 0 0.25 0"/>
<feBlend mode="normal" in2="effect1_dropShadow_2_3" result="effect2_dropShadow_2_3"/>
<feBlend mode="normal" in="SourceGraphic" in2="effect2_dropShadow_2_3" result="shape"/>
</filter>
<clipPath id="clip0_2_3">
<rect width="1000" height="500" fill="white"/>
</clipPath>
</defs>
</svg>
