<svg width="1000" height="500" viewBox="0 0 1000 500" fill="none" xmlns="http://www.w3.org/2000/svg">
<rect width="1000" height="500" fill="#181818"/>
<path d="M852.434 394.871C853.936 394.815 854.965 394.176 855.521 392.953C856.077 391.729 855.582 390.545 854.036 389.399L817.255 358.287C816.632 357.709 815.87 357.436 814.969 357.469L732.546 360.519C731.645 360.552 730.906 360.88 730.328 361.503L701.801 395.031C700.944 396.266 700.839 397.472 701.484 398.651C701.828 399.841 702.751 400.408 704.253 400.353L852.434 394.871ZM691.675 389.542C692.031 391.033 692.821 392.056 694.044 392.612C695.256 392.868 696.441 392.373 697.597 391.127L726.124 357.599C726.702 356.976 726.975 356.214 726.941 355.314L716.703 273.607C716.669 272.707 716.341 271.967 715.718 271.389L687.778 247.616C685.932 246.482 684.581 246.532 683.724 247.766L675.9 255.723C675.611 256.034 675.489 256.791 675.533 257.992L691.675 389.542ZM683.124 243.729C684.681 245.175 686.032 245.125 687.178 243.579L708.781 217.974C709.36 217.352 709.632 216.59 709.599 215.689L698.143 125.458C698.109 124.558 697.781 123.818 697.158 123.24L659.927 92.1439C658.681 90.9873 657.469 90.7314 656.29 91.3764C655.111 92.0214 654.7 93.089 655.056 94.5792L672.365 233.303C672.398 234.204 672.726 234.943 673.349 235.522L683.124 243.729ZM830.855 238.264C832.412 239.71 833.914 239.655 835.359 238.098L842.249 229.273C842.828 228.651 843.1 227.889 843.067 226.988L825.757 88.2643C825.402 86.774 824.762 85.7453 823.839 85.1781C822.616 84.622 821.426 84.9667 820.269 86.2122L791.292 119.757C790.714 120.38 790.441 121.142 790.475 122.043L801.931 212.273C801.964 213.174 802.292 213.914 802.915 214.492L830.855 238.264ZM819.274 351.898C819.307 352.799 819.635 353.538 820.258 354.117L857.94 385.196C859.185 386.352 860.403 386.758 861.593 386.414C862.472 385.78 862.733 384.718 862.377 383.228L846.235 251.677C846.213 251.076 845.735 250.342 844.801 249.475L835.96 242.135C833.802 240.711 832.301 240.767 831.456 242.301L809.852 267.906C809.274 268.529 809.001 269.291 809.035 270.192L819.274 351.898Z" fill="#34B233"/>
<path fill-rule="evenodd" clip-rule="evenodd" d="M498.777 364.084L531.208 362.884C532.793 362.825 533.988 361.421 533.792 359.847L522.09 265.899C522.011 265.257 521.703 264.665 521.225 264.231L503.016 247.698C501.892 246.677 500.147 246.783 499.153 247.931L484.029 265.416C483.522 266.002 483.291 266.777 483.394 267.544L495.997 361.74C496.182 363.121 497.385 364.135 498.777 364.084ZM463.05 370.818L570.228 366.853C570.91 366.827 571.577 367.061 572.094 367.507L609.68 399.905C610.153 400.313 610.436 400.9 610.459 401.525C610.488 402.314 610.101 403.061 609.439 403.492L608.931 403.823C608.521 404.09 608.045 404.241 607.555 404.259L436.806 410.576C436.44 410.589 436.075 410.528 435.733 410.397L434.466 409.908C433.586 409.569 432.946 408.795 432.778 407.866L432.705 407.465C432.563 406.679 432.776 405.871 433.286 405.257L461.07 371.792C461.561 371.201 462.281 370.846 463.05 370.818ZM447.911 284.462L457.934 365.379C458.023 366.091 457.824 366.81 457.382 367.375L451.182 375.316L438.204 390.228L428.919 401.84C428.067 402.906 426.554 403.17 425.391 402.456L424.384 401.837C423.682 401.405 423.215 400.678 423.115 399.86L407.223 269.725C407.142 269.067 407.307 268.401 407.685 267.856L414.034 258.704C414.52 258.005 415.306 257.575 416.156 257.543L416.889 257.516C417.576 257.491 418.246 257.727 418.765 258.179L447.002 282.754C447.505 283.192 447.829 283.8 447.911 284.462ZM575.577 363.762L612.581 394.752C612.809 394.943 613.067 395.095 613.344 395.202L615.071 395.868C615.709 396.114 616.433 395.946 616.898 395.445C617.235 395.083 617.394 394.59 617.333 394.1L600.871 262.031C600.795 261.42 600.513 260.854 600.071 260.425L591.29 251.9C590.761 251.386 590.044 251.11 589.307 251.138L588.078 251.183C587.303 251.212 586.576 251.573 586.085 252.174L565.151 277.774C564.684 278.345 564.471 279.082 564.561 279.815L574.629 362.018C574.713 362.698 575.052 363.322 575.577 363.762Z" fill="#34B233"/>
<path d="M339.203 411.449C340.704 411.394 341.733 410.754 342.289 409.531C342.845 408.308 342.35 407.123 340.804 405.978L304.023 374.865C303.4 374.287 302.639 374.014 301.738 374.048L219.315 377.097C218.414 377.13 217.674 377.458 217.096 378.081L188.569 411.609C187.713 412.844 187.607 414.05 188.252 415.229C188.597 416.419 189.52 416.986 191.021 416.931L339.203 411.449ZM178.444 406.121C178.8 407.611 179.589 408.634 180.812 409.19C182.025 409.446 183.209 408.951 184.366 407.706L212.892 374.177C213.471 373.555 213.743 372.793 213.71 371.892L203.471 290.186C203.438 289.285 203.11 288.545 202.487 287.967L174.546 264.195C172.7 263.06 171.349 263.11 170.493 264.345L162.669 272.301C162.38 272.613 162.257 273.369 162.302 274.57L178.444 406.121ZM169.892 260.308C171.449 261.754 172.801 261.704 173.946 260.158L195.55 234.553C196.128 233.93 196.4 233.168 196.367 232.267L184.911 142.037C184.878 141.136 184.55 140.396 183.927 139.818L146.695 108.722C145.45 107.566 144.237 107.31 143.059 107.955C141.88 108.6 141.468 109.667 141.824 111.157L159.133 249.881C159.167 250.782 159.495 251.522 160.117 252.1L169.892 260.308ZM317.624 254.843C319.181 256.288 320.682 256.233 322.128 254.676L329.018 245.852C329.596 245.229 329.868 244.467 329.835 243.566L312.526 104.843C312.17 103.352 311.531 102.324 310.607 101.756C309.384 101.2 308.194 101.545 307.038 102.791L278.06 136.336C277.482 136.958 277.21 137.72 277.243 138.621L288.699 228.852C288.733 229.752 289.061 230.492 289.683 231.07L317.624 254.843ZM306.042 368.476C306.075 369.377 306.403 370.117 307.026 370.695L344.708 401.774C345.954 402.931 347.171 403.337 348.361 402.992C349.24 402.358 349.501 401.296 349.145 399.806L333.004 268.255C332.981 267.655 332.503 266.921 331.569 266.053L322.728 258.713C320.571 257.289 319.069 257.345 318.224 258.88L296.621 284.485C296.042 285.107 295.77 285.869 295.803 286.77L306.042 368.476Z" fill="#34B233"/>
</svg>
